<svg id="Layer_1" xmlns="http://www.w3.org/2000/svg" viewBox="0 0 512 512"><path d="M0 256a257.1 257.1 0 0 0 5.127 51.2L256 322.783 506.874 307.2c3.36-16.543 5.126-33.665 5.126-51.2s-1.768-34.657-5.126-51.2L256 189.217 5.127 204.8A257.1 257.1 0 0 0 0 256z" fill="#0052b4"/><path d="M506.874 307.2H5.127C28.846 424.05 132.151 512 256 512s227.154-87.95 250.874-204.8z" fill="#f0f0f0"/><path d="M5.127 204.8h501.748C483.154 87.95 379.851 0 256 0S28.846 87.95 5.127 204.8z"/><polygon points="367.304,204.8 144.696,204.8 190.176,183.406 165.957,139.361 215.342,148.806 221.602,98.917 256,135.611 290.4,98.917 296.656,148.806 346.043,139.361 321.826,183.408" fill="#ffda44"/><path d="M0 256c0 141.384 114.616 256 256 256L51.196 102.391C19.052 145.18 0 198.363 0 256z" fill="#a2001d"/><path d="M256 512c141.384 0 256-114.616 256-256 0-57.637-19.052-110.82-51.196-153.609L256 512z" fill="#a2001d"/><g/><g/><g/><g/><g/><g/><g/><g/><g/><g/><g/><g/><g/><g/><g/></svg>