<svg id="Layer_1" xmlns="http://www.w3.org/2000/svg" viewBox="0 0 512 512"><circle cx="256" cy="256" r="256" fill="#ffda44"/><path d="M256 512c77.591 0 147.114-34.524 194.061-89.043H61.939C108.886 477.476 178.409 512 256 512z" fill="#338af3"/><path d="M512 256C512 114.616 397.384 0 256 0S0 114.616 0 256c0 23.107 3.08 45.489 8.819 66.783h494.363C508.92 301.489 512 279.107 512 256z" fill="#338af3"/><path d="M20.349 356.174a255.192 255.192 0 0 0 17.225 33.391h436.852a255.576 255.576 0 0 0 17.227-33.391H20.349z" fill="#338af3"/><polygon points="117.317,161.463 67.301,139.389 117.317,117.315 139.39,67.3 161.463,117.315 211.478,139.389 161.463,161.463 139.39,211.478" fill="#f0f0f0"/><polygon points="139.39,94.867 153.021,125.756 183.911,139.389 153.021,153.021 139.39,183.91 125.757,153.021 94.868,139.389 125.757,125.756" fill="#d80027"/></svg>