<svg id="Layer_1" xmlns="http://www.w3.org/2000/svg" viewBox="0 0 512 512"><path d="M512 256c0 141.384-114.616 256-256 256S0 397.384 0 256C0 256.06 256 .029 256 0c141.384 0 256 114.616 256 256z" fill="#0052b4"/><path d="M256 0l-.043.001L256 0z" fill="#f0f0f0"/><path d="M255.315 256H256v-.685l-.685.685z" fill="#f0f0f0"/><path d="M256 133.566V.001h-.043C114.592.024 0 114.629 0 256h133.565v-75.212L208.777 256h46.539l.685-.685v-46.536l-75.213-75.213H256z" fill="#f0f0f0"/><path d="M129.515 33.391a257.222 257.222 0 0 0-96.124 96.124V256h66.783V100.174H256V33.391H129.515z" fill="#d80027"/><path d="M256 224.519l-90.953-90.952h-31.481c0-.001 0 0 0 0L255.999 256H256v-31.481z" fill="#d80027"/><polygon points="154.395,300.522 168.445,329.9 200.172,322.567 185.964,351.869 211.478,372.102 179.711,379.262 179.8,411.826 154.395,391.453 128.991,411.826 129.08,379.262 97.312,372.102 122.827,351.869 108.617,322.567 140.346,329.9" fill="#f0f0f0"/><polygon points="383.284,356.174 390.309,370.863 406.173,367.196 399.068,381.847 411.826,391.964 395.942,395.544 395.986,411.826 383.284,401.639 370.582,411.826 370.626,395.544 354.743,391.964 367.5,381.847 360.396,367.196 376.259,370.863" fill="#f0f0f0"/><polygon points="317.933,200.348 324.957,215.038 340.821,211.37 333.717,226.021 346.474,236.138 330.591,239.718 330.634,256 317.933,245.813 305.231,256 305.274,239.718 289.391,236.138 302.148,226.021 295.044,211.37 310.908,215.038" fill="#f0f0f0"/><polygon points="383.284,111.304 390.309,125.994 406.173,122.327 399.069,136.978 411.825,147.094 395.942,150.675 395.986,166.957 383.284,156.77 370.582,166.957 370.626,150.675 354.743,147.094 367.499,136.978 360.396,122.327 376.259,125.994" fill="#f0f0f0"/><polygon points="440.368,178.087 447.392,192.777 463.256,189.109 456.152,203.76 468.909,213.877 453.025,217.458 453.069,233.739 440.368,223.553 427.666,233.739 427.709,217.458 411.826,213.877 424.583,203.76 417.479,189.109 433.342,192.777" fill="#f0f0f0"/><polygon points="399.55,256 405.075,273.006 422.957,273.006 408.49,283.517 414.017,300.522 399.55,290.012 385.084,300.522 390.609,283.517 376.143,273.006 394.024,273.006" fill="#f0f0f0"/></svg>