<svg id="Layer_1" xmlns="http://www.w3.org/2000/svg" viewBox="0 0 512.001 512.001"><path d="M256.001.001c141.384 0 256 114.616 256 256s-114.616 256-256 256-256-114.616-256-256" fill="#ffda44"/><path d="M250.436 113.779H468.88a257.41 257.41 0 0 0-51.987-56.889H250.436v56.889z" fill="#d80027"/><path d="M250.436 227.557h259.985a254.547 254.547 0 0 0-13.006-56.888H250.436v56.888z" fill="#d80027"/><path d="M14.588 341.335h482.825a254.566 254.566 0 0 0 13.007-56.89H1.582a254.374 254.374 0 0 0 13.006 56.89z" fill="#d80027"/><path d="M95.108 455.112h321.784a257.434 257.434 0 0 0 51.987-56.889H43.123a257.447 257.447 0 0 0 51.985 56.889z" fill="#d80027"/><path d="M256.001.001C114.616.001-.001 114.617 0 256.003c58.426-.002 114.616 0 256 0L256.001.001z" fill="#4a1f63"/><polygon points="211.479,133.566 211.479,155.827 200.349,155.827 200.349,133.566 178.088,133.566 178.088,155.827 166.958,155.827 166.958,111.305 122.436,111.305 122.436,155.827 111.305,155.827 111.305,133.566 89.045,133.566 89.045,155.827 77.914,155.827 77.914,133.566 55.652,133.566 55.652,200.348 233.74,200.348 233.74,133.566" fill="#f0f0f0"/><g/><g/><g/><g/><g/><g/><g/><g/><g/><g/><g/><g/><g/><g/><g/></svg>