<svg id="Layer_1" xmlns="http://www.w3.org/2000/svg" viewBox="0 0 512 512"><circle cx="256" cy="256" r="256" fill="#fcfcfc"/><polygon points="105.739,237.449 77.913,186.966 105.739,137.275 133.565,186.966" fill="#a2001d"/><polygon points="50.087,237.449 22.261,186.966 50.087,137.275 77.913,186.966" fill="#a2001d"/><polygon points="105.739,374.725 77.913,324.242 105.739,274.551 133.565,324.242" fill="#a2001d"/><polygon points="50.087,374.725 22.261,324.242 50.087,274.551 77.913,324.242" fill="#a2001d"/><path d="M133.565 49.692l-7.878-14.068a256.698 256.698 0 0 0-39.594 28.909l19.646 35.641 27.826-50.482z" fill="#a2001d"/><path d="M105.739 411.826l-19.854 35.456a256.711 256.711 0 0 0 39.568 28.955l8.113-14.719-27.827-49.692z" fill="#a2001d"/><path d="M155.826 322.783v168.863C186.595 504.743 220.448 512 256 512c110.071 0 203.906-69.472 240.077-166.957l-340.251-22.26z" fill="#6da544"/><path d="M496.077 345.043C506.368 317.31 512 287.314 512 256 512 114.616 397.384 0 256 0c-35.549 0-69.405 7.253-100.174 20.348v324.696h340.251z" fill="#a2001d"/><g/><g/><g/><g/><g/><g/><g/><g/><g/><g/><g/><g/><g/><g/><g/></svg>