<svg id="Layer_1" xmlns="http://www.w3.org/2000/svg" viewBox="0 0 512 512"><path d="M512 256c0 141.384-114.616 256-256 256S0 397.384 0 256C0 256.061 256 .028 256 0c141.384 0 256 114.616 256 256z" fill="#d80027"/><polygon points="256,122.435 256,208.778 166.957,122.435" fill="#0052b4"/><polygon points="133.565,256 208.776,256 133.565,155.826 122.435,233.739" fill="#0052b4"/><path d="M256 0h-.043.043z" fill="#f0f0f0"/><path d="M255.315 256H256v-.685l-.685.685z" fill="#f0f0f0"/><path d="M256 133.565V0h-.043C114.591.024 0 114.629 0 256h133.565v-75.211L208.776 256h46.54l.685-.685v-46.537l-75.213-75.213H256z" fill="#f0f0f0"/><path d="M129.515 33.391a257.215 257.215 0 0 0-96.124 96.124V267.13h66.783V100.174H267.13V33.391H129.515z" fill="#d80027"/><path d="M266.177 234.694L165.045 133.565h-31.48v.002l132.609 132.609h.002c.001.001.001-21.706.001-31.482z" fill="#d80027"/><path d="M289.391 133.565v122.434c0 59.64 155.826 59.64 155.826 0V133.565H289.391z" fill="#f3f3f3"/><path d="M289.391 256v-.001c0 59.64 77.913 77.914 77.913 77.914s77.913-18.274 77.913-77.914V256H289.391z" fill="#6da544"/><polygon points="367.304,207.026 331.13,222.609 331.13,256 367.304,278.261 403.478,256 403.478,222.609" fill="#a2001d"/><rect x="331.13" y="189.217" width="72.348" height="33.391" fill="#338af3"/><g/><g/><g/><g/><g/><g/><g/><g/><g/><g/><g/><g/><g/><g/><g/></svg>