<svg id="Layer_1" xmlns="http://www.w3.org/2000/svg" viewBox="0 0 512 512"><circle cx="256" cy="256" r="256" fill="#f0f0f0"/><path d="M74.98 74.98C20.115 129.845-4.632 203.419.721 275.165L275.164.722C203.418-4.632 129.845 20.115 74.98 74.98z" fill="#ffda44"/><path d="M91.41 452.071c100.581 84.622 250.94 79.617 345.61-15.052S536.695 191.99 452.072 91.41L91.41 452.071z" fill="#0052b4"/><path d="M255.087 245.689l22.061-11.95-22.061-11.95c-5.151-33.461-31.589-59.9-65.05-65.05l-11.951-22.062-11.95 22.061c-33.46 5.15-59.898 31.589-65.05 65.05l-22.062 11.951 22.061 11.95c5.151 33.461 31.589 59.9 65.05 65.05l11.951 22.062 11.95-22.061c33.462-5.151 59.9-31.59 65.051-65.051zm-77 32.572c-24.589 0-44.522-19.932-44.522-44.522s19.932-44.522 44.522-44.522 44.522 19.932 44.522 44.522-19.933 44.522-44.522 44.522z"/><polygon points="178.087,200.348 187.726,217.043 207.005,217.043 197.365,233.739 207.005,250.435 187.726,250.435 178.087,267.13 168.448,250.435 149.17,250.435 158.809,233.739 149.17,217.043 168.448,217.043" fill="#d80027"/></svg>