<svg id="Layer_1" xmlns="http://www.w3.org/2000/svg" viewBox="0 0 512 512"><circle cx="256" cy="256" r="256" fill="#f0f0f0"/><path d="M411.876 52.902c-91.652-70.526-220.1-70.526-311.752-.001L256 208.777 411.876 52.902z" fill="#d80027"/><path d="M255.998 303.224L100.124 459.098c91.652 70.526 220.1 70.526 311.752 0L256 303.222l-.002.002z" fill="#d80027"/><path d="M208.777 256L52.902 100.124c-70.526 91.652-70.526 220.1 0 311.752L208.777 256z" fill="#6da544"/><path d="M303.224 256l155.874 155.876c70.526-91.652 70.526-220.1 0-311.752L303.224 256z" fill="#6da544"/><circle cx="256" cy="256" r="111.304" fill="#f0f0f0"/><polygon points="256,178.087 265.639,194.783 284.918,194.783 275.278,211.478 284.918,228.174 265.639,228.174 256,244.87 246.361,228.174 227.083,228.174 236.722,211.478 227.083,194.783 246.361,194.783" fill="#d80027"/><polygon points="207.005,256 216.644,272.696 235.922,272.696 226.283,289.391 235.922,306.087 216.644,306.087 207.005,322.783 197.365,306.087 178.087,306.087 187.726,289.391 178.087,272.696 197.365,272.696" fill="#d80027"/><polygon points="304.996,256 314.635,272.696 333.913,272.696 324.274,289.391 333.913,306.087 314.635,306.087 304.996,322.783 295.356,306.087 276.078,306.087 285.717,289.391 276.078,272.696 295.356,272.696" fill="#d80027"/><g/><g/><g/><g/><g/><g/><g/><g/><g/><g/><g/><g/><g/><g/><g/></svg>