<svg id="Layer_1" xmlns="http://www.w3.org/2000/svg" viewBox="0 0 512 512"><circle cx="256" cy="256" r="256" fill="#f0f0f0"/><path d="M480.873 133.565c-33.08-60.629-89.963-106.398-158.09-124.76l-11.13 124.76h169.22z" fill="#0052b4"/><path d="M31.127 133.565h169.22l-11.13-124.76C121.09 27.167 64.208 72.937 31.127 133.565z" fill="#0052b4"/><path d="M311.652 256v122.435h169.22C500.717 342.064 512 300.35 512 256H311.652z" fill="#6da544"/><path d="M200.348 256H0c0 44.35 11.283 86.064 31.127 122.435h169.22V256z" fill="#6da544"/><path d="M31.127 378.435c33.081 60.629 89.963 106.398 158.09 124.76l11.13-109.109-169.22-15.651z" fill="#ffda44"/><path d="M322.783 503.195c68.127-18.362 125.01-64.131 158.09-124.76l-169.22 15.649 11.13 109.111z" fill="#ffda44"/><polygon points="311.652,394.084 480.873,378.435 311.652,378.435" fill="#ffda44"/><polygon points="200.348,378.435 31.127,378.435 200.348,394.084" fill="#ffda44"/><path d="M256 0c-23.107 0-45.489 3.08-66.783 8.819v494.363C210.511 508.92 232.893 512 256 512s45.489-3.08 66.783-8.819V8.819C301.489 3.08 279.107 0 256 0z" fill="#d80027"/><polygon points="137.698,55.652 144.604,76.909 166.957,76.909 148.875,90.047 155.782,111.304 137.698,98.167 119.615,111.304 126.524,90.047 108.442,76.909 130.793,76.909" fill="#ffda44"/><g/><g/><g/><g/><g/><g/><g/><g/><g/><g/><g/><g/><g/><g/><g/></svg>