<svg id="Layer_1" xmlns="http://www.w3.org/2000/svg" viewBox="0 0 512 512"><path d="M512 256c0 141.384-114.616 256-256 256S0 397.384 0 256C0 256.061 256 .028 256 0c141.384 0 256 114.616 256 256z" fill="#0052b4"/><path d="M256 0h-.043.043z" fill="#f0f0f0"/><path d="M255.315 256H256v-.685l-.685.685z" fill="#f0f0f0"/><path d="M256 133.565V0h-.043C114.591.024 0 114.629 0 256h133.565v-75.211L208.776 256h46.54l.685-.685v-46.537l-75.213-75.213H256z" fill="#f0f0f0"/><path d="M129.515 33.391a257.215 257.215 0 0 0-96.124 96.124V256h66.783V100.174H256V33.391H129.515z" fill="#d80027"/><path d="M256 224.519l-90.955-90.953h-31.48v.002L255.998 256H256v-31.481z" fill="#d80027"/><path d="M445.217 256z" fill="#496e2d"/><path d="M289.391 256z" fill="#496e2d"/><polygon points="345.043,256 349.781,270.576 365.106,270.576 352.708,279.584 357.444,294.161 345.043,285.152 332.644,294.161 337.38,279.584 324.982,270.576 340.307,270.576" fill="#f0f0f0"/><polygon points="282.081,282.081 295.736,289.038 306.574,278.201 304.176,293.339 317.832,300.297 302.694,302.693 300.297,317.833 293.338,304.176 278.201,306.574 289.04,295.737" fill="#f0f0f0"/><polygon points="256,345.043 270.576,340.307 270.578,324.983 279.584,337.38 294.161,332.643 285.152,345.043 294.161,357.444 279.584,352.708 270.578,365.106 270.578,349.781" fill="#f0f0f0"/><polygon points="282.081,408.006 289.038,394.35 278.201,383.514 293.339,385.911 300.297,372.255 302.694,387.393 317.832,389.789 304.176,396.748 306.574,411.887 295.736,401.047" fill="#f0f0f0"/><polygon points="345.043,434.087 340.307,419.51 324.981,419.51 337.38,410.502 332.644,395.926 345.043,404.934 357.444,395.926 352.708,410.502 365.106,419.51 349.781,419.51" fill="#f0f0f0"/><polygon points="408.006,408.006 394.35,401.05 383.514,411.887 385.911,396.748 372.255,389.791 387.393,387.393 389.791,372.255 396.748,385.911 411.886,383.514 401.047,394.351" fill="#f0f0f0"/><polygon points="434.087,345.043 419.51,349.781 419.51,365.106 410.502,352.707 395.926,357.444 404.935,345.043 395.926,332.643 410.502,337.38 419.51,324.983 419.51,340.307" fill="#f0f0f0"/><polygon points="408.006,282.082 401.05,295.737 411.886,306.574 396.748,304.176 389.791,317.833 387.393,302.693 372.255,300.296 385.911,293.339 383.514,278.202 394.351,289.038" fill="#f0f0f0"/><g/><g/><g/><g/><g/><g/><g/><g/><g/><g/><g/><g/><g/><g/><g/></svg>