<svg id="Layer_1" xmlns="http://www.w3.org/2000/svg" viewBox="0 0 512 512"><polygon points="0.001,44.522 0,44.522 0,467.478 0.001,467.478 0.001,256.001" fill="#ff9811"/><circle cx="255.999" cy="256" r="255.999" fill="#f0f0f0"/><path d="M256.001.002c-83.752 0-158.106 40.223-204.811 102.4h409.621C414.107 40.224 339.752.002 256.001.002z" fill="#0052b4"/><path d="M256.001 511.999c83.752 0 158.106-40.223 204.811-102.4H51.19c46.704 62.178 121.059 102.4 204.811 102.4z" fill="#0052b4"/><path d="M.001 256.001a257.1 257.1 0 0 0 5.127 51.2h501.747c3.359-16.543 5.126-33.665 5.126-51.2s-1.768-34.657-5.126-51.2H5.128a257.1 257.1 0 0 0-5.127 51.2z" fill="#0052b4"/><path d="M74.981 74.982c-99.973 99.973-99.973 262.064 0 362.039L256 256.002 74.981 74.982z" fill="#d80027"/><polygon points="103.611,189.219 120.185,240.234 173.831,240.234 130.434,271.766 147.008,322.782 103.611,291.252 60.212,322.782 76.79,271.766 33.392,240.234 87.034,240.234" fill="#f0f0f0"/><g/><g/><g/><g/><g/><g/><g/><g/><g/><g/><g/><g/><g/><g/><g/></svg>