<svg id="Layer_1" xmlns="http://www.w3.org/2000/svg" viewBox="0 0 512 512"><path d="M483.574 138.616c-11.829-22.919-27.334-44.431-46.546-63.643-19.213-19.213-40.726-34.718-63.644-46.546L193.035 193.033 28.428 373.382c11.829 22.919 27.334 44.432 46.546 63.644 19.212 19.212 40.725 34.717 63.643 46.546l180.349-164.607 164.608-180.349z" fill="#ffda44"/><path d="M74.974 437.027a257.634 257.634 0 0 0 34.217 28.75l356.584-356.586a257.466 257.466 0 0 0-28.748-34.217 257.605 257.605 0 0 0-34.217-28.748L46.226 402.81a257.517 257.517 0 0 0 28.748 34.217z" fill="#d80027"/><path d="M74.974 74.972c-80.767 80.767-96.272 202.065-46.546 298.41L373.384 28.427C277.038-21.298 155.74-5.791 74.974 74.972z" fill="#338af3"/><path d="M437.027 437.027c80.766-80.766 96.27-202.064 46.547-298.409L138.618 483.573c96.345 49.725 217.644 34.221 298.409-46.546z" fill="#338af3"/><polygon points="136.426,77.905 150.24,120.422 194.944,120.422 158.778,146.698 172.592,189.214 136.426,162.937 100.258,189.214 114.074,146.698 77.906,120.422 122.61,120.422" fill="#ffda44"/><g/><g/><g/><g/><g/><g/><g/><g/><g/><g/><g/><g/><g/><g/><g/></svg>