<svg id="Layer_1" xmlns="http://www.w3.org/2000/svg" viewBox="0 0 512 512"><path d="M233.739 278.261S75.13 74.945 74.98 74.981C121.306 28.654 185.307 0 256 0c141.384 0 256 114.616 256 256l-278.261 22.261z" fill="#338af3"/><path d="M233.739 256S75.13 437.055 74.98 437.019C121.306 483.346 185.307 512 256 512c141.384 0 256-114.616 256-256H233.739z" fill="#6da544"/><path d="M74.98 74.98c-99.974 99.974-99.974 262.065 0 362.04L256 256 74.98 74.98z" fill="#f0f0f0"/><polygon points="103.61,189.217 120.185,240.233 173.831,240.233 130.433,271.765 147.007,322.783 103.61,291.252 60.211,322.783 76.789,271.765 33.391,240.233 87.033,240.233" fill="#d80027"/><g/><g/><g/><g/><g/><g/><g/><g/><g/><g/><g/><g/><g/><g/><g/></svg>