<svg id="Layer_1" xmlns="http://www.w3.org/2000/svg" viewBox="0 0 512 512"><circle cx="256" cy="256" r="256" fill="#ffda44"/><path d="M256 0C193.323 0 135.917 22.537 91.415 59.934L367.304 256 91.415 452.066C135.917 489.463 193.323 512 256 512c141.384 0 256-114.616 256-256S397.384 0 256 0z" fill="#d80027"/><path d="M74.98 74.98c-99.974 99.974-99.974 262.065 0 362.04L256 256 74.98 74.98z"/><polygon points="70.979,197.355 109.939,234.227 157.047,208.563 134.022,257.013 172.983,293.886 119.789,286.958 96.761,335.407 86.914,282.675 33.72,275.745 80.826,250.084" fill="#f0f0f0"/></svg>