<svg id="Layer_1" xmlns="http://www.w3.org/2000/svg" viewBox="0 0 512 512"><circle cx="256" cy="256" r="256" fill="#f0f0f0"/><path d="M31.127 133.565h449.745C437.454 53.989 353.035 0 256 0S74.546 53.989 31.127 133.565z" fill="#d80027"/><path d="M256 512c97.035 0 181.454-53.989 224.873-133.565H31.127C74.546 458.011 158.965 512 256 512z" fill="#d80027"/><path d="M345.043 256c0 49.178-39.866 77.913-89.043 77.913S166.957 305.178 166.957 256s39.866-89.043 89.043-89.043 89.043 39.865 89.043 89.043z" fill="#ffda44"/><path d="M345.043 256c0 49.178-39.866 89.043-89.043 89.043S166.957 305.178 166.957 256" fill="#0052b4"/><rect x="200.348" y="233.739" width="22.261" height="44.522" fill="#d80027"/><rect x="289.391" y="233.739" width="22.261" height="44.522" fill="#d80027"/><rect x="244.87" y="200.348" width="22.261" height="77.913" fill="#d80027"/></svg>