<svg id="Layer_1" xmlns="http://www.w3.org/2000/svg" viewBox="0 0 512 512"><circle cx="256" cy="256" r="256" fill="#f0f0f0"/><path d="M509.833 222.609H289.392V2.167C278.461.744 267.317 0 256 0s-22.461.744-33.391 2.167v220.441H2.167A258.556 258.556 0 0 0 0 256c0 11.319.744 22.461 2.167 33.391h220.441v220.442a258.35 258.35 0 0 0 66.783 0V289.392h220.442A258.533 258.533 0 0 0 512 256c0-11.317-.744-22.461-2.167-33.391z" fill="#d80027"/><polygon points="155.826,122.435 155.826,89.043 122.435,89.043 122.435,122.435 89.043,122.435 89.043,155.826 122.435,155.826 122.435,189.217 155.826,189.217 155.826,155.826 189.217,155.826 189.217,122.435" fill="#d80027"/><polygon points="389.565,122.435 389.565,89.043 356.174,89.043 356.174,122.435 322.783,122.435 322.783,155.826 356.174,155.826 356.174,189.217 389.565,189.217 389.565,155.826 422.957,155.826 422.957,122.435" fill="#d80027"/><polygon points="155.826,356.174 155.826,322.783 122.435,322.783 122.435,356.174 89.043,356.174 89.043,389.565 122.435,389.565 122.435,422.957 155.826,422.957 155.826,389.565 189.217,389.565 189.217,356.174" fill="#d80027"/><polygon points="389.565,356.174 389.565,322.783 356.174,322.783 356.174,356.174 322.783,356.174 322.783,389.565 356.174,389.565 356.174,422.957 389.565,422.957 389.565,389.565 422.957,389.565 422.957,356.174" fill="#d80027"/></svg>