<svg id="Layer_1" xmlns="http://www.w3.org/2000/svg" viewBox="0 0 512 512"><circle cx="256" cy="256" r="256" fill="#ffda44"/><path d="M111.713 44.522C152.798 16.436 202.476 0 256 0s103.202 16.436 144.287 44.522L256 55.652l-144.287-11.13z" fill="#a2001d"/><polygon points="256,256 239.662,239.662 235.324,247.433" fill="#0052b4"/><path d="M74.98 74.98c-99.974 99.974-99.974 262.065 0 362.04L256 256 74.98 74.98z" fill="#496e2d"/><path d="M437.02 74.98c99.974 99.974 99.974 262.065 0 362.04L256 256 437.02 74.98z" fill="#496e2d"/><circle cx="256" cy="256" r="89.043" fill="#a2001d"/><polygon points="255.999,166.957 275.958,228.386 340.556,228.386 288.298,266.359 308.257,327.791 255.999,289.825 203.739,327.791 223.702,266.359 171.444,228.386 236.038,228.386" fill="#ffda44"/><path d="M256 0l-.086.002h.171L256 0z" fill="#ffda44"/><path d="M256.086 0h-.171C185.262.023 121.301 28.666 74.994 74.968h362.013C390.699 28.666 326.738.023 256.086 0z" fill="#a2001d"/><path d="M74.995 437.033C121.321 483.352 185.315 512 256 512s134.679-28.648 181.005-74.967H74.995z" fill="#a2001d"/><polygon points="256,27.826 260.145,40.58 273.555,40.58 262.706,48.463 266.851,61.217 256,53.335 245.151,61.217 249.296,48.463 238.445,40.58 251.855,40.58" fill="#ffda44"/><polygon points="193.923,27.826 198.068,40.58 211.478,40.58 200.629,48.463 204.774,61.217 193.923,53.335 183.075,61.217 187.219,48.463 176.368,40.58 189.778,40.58" fill="#ffda44"/><polygon points="318.077,27.826 322.222,40.58 335.632,40.58 324.783,48.463 328.928,61.217 318.077,53.335 307.228,61.217 311.373,48.463 300.522,40.58 313.932,40.58" fill="#ffda44"/><polygon points="256,450.783 260.145,463.537 273.555,463.537 262.706,471.42 266.851,484.174 256,476.291 245.151,484.174 249.296,471.42 238.445,463.537 251.855,463.537" fill="#ffda44"/><polygon points="193.923,450.783 198.068,463.537 211.478,463.537 200.629,471.42 204.774,484.174 193.923,476.291 183.075,484.174 187.219,471.42 176.368,463.537 189.778,463.537" fill="#ffda44"/><polygon points="318.077,450.783 322.222,463.537 335.632,463.537 324.783,471.42 328.928,484.174 318.077,476.291 307.228,484.174 311.373,471.42 300.522,463.537 313.932,463.537" fill="#ffda44"/><path d="M78.003 251.772c6.575 10.389 3.485 24.14-6.904 30.716-10.388 6.576-24.14 3.486-30.716-6.903-11.905-18.808-5.002-49.525-5.002-49.525s30.716 6.903 42.622 25.712z" fill="#ffda44"/><circle cx="65.146" cy="273.085" r="11.13" fill="#a2001d"/><g/><g/><g/><g/><g/><g/><g/><g/><g/><g/><g/><g/><g/><g/><g/></svg>