<svg id="Layer_1" xmlns="http://www.w3.org/2000/svg" viewBox="0 0 512 512"><circle cx="256" cy="256" r="256" fill="#f0f0f0"/><path d="M512 256c0-101.494-59.065-189.19-144.696-230.598v461.195C452.935 445.19 512 357.493 512 256z" fill="#338af3"/><path d="M0 256c0 101.493 59.065 189.19 144.696 230.598V25.402C59.065 66.81 0 154.506 0 256z" fill="#338af3"/><polygon points="322.898,299.288 279.612,256.002 320.815,214.797 318.948,193.035 307.152,181.237 256,232.389 204.848,181.237 193.052,193.035 191.185,214.797 232.388,256.002 189.101,299.288 212.713,322.898 256,279.613 299.287,322.898" fill="#acabb1"/><path d="M318.963 193.037l-23.611 23.611c10.071 10.071 16.301 23.984 16.301 39.352 0 30.736-24.917 55.652-55.652 55.652S200.348 286.736 200.348 256c0-15.368 6.23-29.281 16.301-39.352l-23.611-23.611c-16.115 16.112-26.081 38.373-26.081 62.963 0 49.178 39.866 89.043 89.043 89.043s89.043-39.866 89.043-89.043c0-24.589-9.966-46.85-26.08-62.963z" fill="#6da544"/></svg>