<svg id="Layer_1" xmlns="http://www.w3.org/2000/svg" viewBox="0 0 512 512"><circle cx="256" cy="256" r="256" fill="#f0f0f0"/><path d="M509.833 222.609H289.392V2.167C278.461.744 267.317 0 256 0s-22.461.744-33.391 2.167v220.442H2.167C.744 233.539 0 244.683 0 256s.744 22.461 2.167 33.391h220.441v220.442a258.35 258.35 0 0 0 66.783 0V289.392h220.442C511.256 278.461 512 267.317 512 256s-.744-22.461-2.167-33.391z" fill="#d80027"/><polygon points="328.348,267.13 345.043,278.261 345.043,233.739 328.348,244.87 267.13,244.87 267.13,183.652 278.261,166.957 233.739,166.957 244.87,183.652 244.87,244.87 183.652,244.87 166.957,233.739 166.957,278.261 183.652,267.13 244.87,267.13 244.87,328.348 233.739,345.043 278.261,345.043 267.13,328.348 267.13,267.13" fill="#ffda44"/><g/><g/><g/><g/><g/><g/><g/><g/><g/><g/><g/><g/><g/><g/><g/></svg>