<svg id="Layer_1" xmlns="http://www.w3.org/2000/svg" viewBox="0 0 512 512"><path d="M512 256c0 141.384-114.616 256-256 256S0 397.384 0 256 256 0 256 0s256 114.616 256 256z" fill="#a2001d"/><path d="M0 256C0 114.616 114.616 0 256 0s256 114.616 256 256" fill="#0052b4"/><polygon points="345.043,322.783 256,311.652 166.957,322.783 166.957,189.217 345.043,189.217" fill="#f0f0f0"/><circle cx="256" cy="267.13" r="44.522" fill="#0052b4"/><circle cx="256" cy="267.13" r="22.261" fill="#a2001d"/><polygon points="222.609,211.478 289.391,211.478 256,244.87" fill="#6da544"/><rect x="244.87" y="233.739" width="22.261" height="66.783" fill="#ffda44"/><polygon points="291.617,293.843 220.381,293.843 166.957,322.783 345.043,322.783" fill="#6da544"/><g/><g/><g/><g/><g/><g/><g/><g/><g/><g/><g/><g/><g/><g/><g/></svg>