<svg id="Layer_1" xmlns="http://www.w3.org/2000/svg" viewBox="0 0 512 512"><circle cx="256" cy="256" r="256" fill="#f0f0f0"/><path d="M256 0C154.506 0 66.81 59.065 25.402 144.696h461.195C445.19 59.065 357.493 0 256 0z" fill="#ff9811"/><path d="M256 512c101.493 0 189.19-59.065 230.598-144.696H25.402C66.81 452.935 154.506 512 256 512z" fill="#6da544"/><circle cx="256" cy="256" r="89.043" fill="#0052b4"/><circle cx="256" cy="256" r="55.652" fill="#f0f0f0"/><polygon points="256,187.326 273.169,226.264 315.473,221.663 290.337,256 315.473,290.337 273.169,285.736 256,324.674 238.831,285.736 196.527,290.336 221.663,256 196.527,221.663 238.831,226.264" fill="#0052b4"/><g/><g/><g/><g/><g/><g/><g/><g/><g/><g/><g/><g/><g/><g/><g/></svg>