<svg id="Layer_1" xmlns="http://www.w3.org/2000/svg" viewBox="0 0 512 512"><circle cx="256" cy="256" r="256" fill="#f0f0f0"/><path d="M256 0C145.929 0 52.094 69.472 15.923 166.957h480.155C459.906 69.472 366.071 0 256 0z" fill="#a2001d"/><path d="M256 512c110.071 0 203.906-69.472 240.077-166.957H15.923C52.094 442.528 145.929 512 256 512z"/><path d="M194.783 239.304c-.14 0-.277.009-.417.011v-.011h-48.937c2.481-9.586 11.179-16.696 21.528-16.696v-33.391c-30.687 0-55.652 24.966-55.652 55.652V272.696H194.783a5.571 5.571 0 0 1 5.565 5.565v11.13H89.043v33.391h144.696V278.26c0-21.48-17.476-38.956-38.956-38.956z" fill="#496e2d"/><polygon points="278.261,289.391 278.261,189.217 244.87,189.217 244.87,322.783 300.522,322.783 300.522,289.391" fill="#496e2d"/><polygon points="389.565,289.392 389.565,189.217 356.174,189.217 356.174,289.392 345.043,289.392 345.043,256.001 311.652,256.001 311.652,322.784 411.826,322.784 411.826,289.392" fill="#496e2d"/><g/><g/><g/><g/><g/><g/><g/><g/><g/><g/><g/><g/><g/><g/><g/></svg>