<svg id="Layer_1" xmlns="http://www.w3.org/2000/svg" viewBox="0 0 512 512"><circle cx="256" cy="256" r="256" fill="#f0f0f0"/><path d="M155.826 166.957h340.25C459.906 69.472 366.07 0 256 0 185.306 0 121.313 28.659 74.989 74.989l80.837 91.968z"/><path d="M155.826 345.043h340.25C459.906 442.528 366.07 512 256 512c-70.694 0-134.687-28.659-181.011-74.989l80.837-91.968z" fill="#6da544"/><path d="M74.98 74.98c-99.974 99.974-99.974 262.065 0 362.04L256 256 74.98 74.98z" fill="#d80027"/><polygon points="101.605,200.348 115.654,229.727 147.383,222.394 133.173,251.695 158.688,271.929 126.921,279.088 127.009,311.652 101.605,291.279 76.2,311.652 76.289,279.088 44.522,271.929 70.036,251.695 55.828,222.394 87.555,229.727" fill="#f0f0f0"/></svg>