<svg id="Layer_1" xmlns="http://www.w3.org/2000/svg" viewBox="0 0 512 512"><path d="M0 256C0 114.616 114.616 0 256 0s256 114.616 256 256" fill="#d80027"/><polygon points="345.043,238.078 308.658,255.191 328.034,290.43 288.525,282.871 283.519,322.783 256,293.428 228.48,322.783 223.475,282.871 183.966,290.428 203.341,255.191 166.957,238.078 203.341,220.962 183.966,185.727 223.474,193.283 228.481,153.373 256,182.726 283.52,153.373 288.525,193.283 328.035,185.727 308.661,220.965" fill="#ffda44"/><path d="M322.783 83.478h-50.087c0-9.219-7.476-16.696-16.696-16.696s-16.696 7.476-16.696 16.696h-50.087c0 9.22 8.032 16.696 17.252 16.696h-.557c0 9.22 7.474 16.696 16.696 16.696 0 9.22 7.474 16.696 16.696 16.696h33.391c9.219 0 16.696-7.475 16.696-16.696 9.219 0 16.696-7.475 16.696-16.696h-.557c9.221 0 17.253-7.475 17.253-16.696z" fill="#ffda44"/><path d="M512 256c0 141.384-114.616 256-256 256S0 397.384 0 256h512z" fill="#f0f0f0"/><path d="M256 512c80.022 0 151.456-36.724 198.402-94.228-8.444-5.757-13.003-15.063-27.739-15.063-21.333 0-21.333 19.506-42.665 19.506s-21.333-19.506-42.665-19.506c-21.333 0-21.333 19.506-42.667 19.506s-21.335-19.506-42.67-19.506c-21.333 0-21.333 19.506-42.665 19.506-21.33 0-21.33-19.506-42.663-19.506-21.335 0-21.335 19.506-42.67 19.506s-21.335-19.506-42.67-19.506c-14.734 0-19.293 9.304-27.733 15.061C104.539 475.276 175.977 512 256 512z" fill="#0052b4"/><path d="M469.33 288.65c-21.333 0-21.333-19.506-42.667-19.506-21.333 0-21.333 19.506-42.665 19.506s-21.333-19.506-42.665-19.506c-21.333 0-21.333 19.506-42.667 19.506s-21.335-19.506-42.67-19.506c-21.333 0-21.333 19.506-42.665 19.506-21.33 0-21.33-19.506-42.663-19.506-21.335 0-21.335 19.506-42.67 19.506s-21.335-19.506-42.67-19.506c-21.33 0-21.33 19.506-42.663 19.506-21.218 0-21.341-19.291-42.332-19.497a256.185 256.185 0 0 0 4.103 34.448c17.004 2.499 18.493 19.182 38.23 19.182 21.333 0 21.333-19.504 42.663-19.504 21.335 0 21.335 19.504 42.67 19.504s21.335-19.504 42.67-19.504c21.333 0 21.333 19.504 42.663 19.504 21.333 0 21.333-19.504 42.665-19.504 21.335 0 21.335 19.504 42.67 19.504s21.335-19.504 42.667-19.504c21.333 0 21.333 19.504 42.665 19.504s21.333-19.504 42.665-19.504c21.335 0 21.335 19.504 42.667 19.504 19.739 0 21.228-16.682 38.233-19.181a256.53 256.53 0 0 0 4.105-34.448c-20.995.207-21.12 19.496-42.339 19.496z" fill="#0052b4"/><path d="M426.663 335.927c-21.333 0-21.333 19.506-42.665 19.506s-21.333-19.506-42.665-19.506c-21.333 0-21.333 19.506-42.667 19.506-21.335 0-21.335-19.506-42.67-19.506-21.333 0-21.333 19.506-42.665 19.506-21.33 0-21.33-19.506-42.663-19.506-21.335 0-21.335 19.506-42.67 19.506s-21.335-19.506-42.67-19.506c-21.33 0-21.33 19.506-42.663 19.506-15.243 0-19.597-9.956-28.622-15.644a254.687 254.687 0 0 0 23.237 49.308c1.637.302 3.419.469 5.385.469 21.333 0 21.333-19.504 42.663-19.504 21.335 0 21.335 19.504 42.67 19.504s21.335-19.504 42.67-19.504c21.333 0 21.333 19.504 42.663 19.504 21.333 0 21.333-19.504 42.665-19.504 21.335 0 21.335 19.504 42.67 19.504s21.335-19.504 42.667-19.504c21.333 0 21.333 19.504 42.665 19.504s21.333-19.504 42.665-19.504c21.335 0 21.335 19.504 42.667 19.504 1.968 0 3.75-.167 5.387-.47a254.854 254.854 0 0 0 23.239-49.306c-9.026 5.685-13.381 15.643-28.626 15.643-21.332 0-21.332-19.506-42.667-19.506z" fill="#0052b4"/><path d="M511.206 235.775c-20.53.485-20.813 19.484-41.876 19.484-21.333 0-21.333-19.506-42.667-19.506-21.333 0-21.333 19.506-42.665 19.506s-21.333-19.506-42.665-19.506c-21.333 0-21.333 19.506-42.667 19.506s-21.335-19.506-42.67-19.506c-21.333 0-21.333 19.506-42.665 19.506-21.33 0-21.33-19.506-42.663-19.506-21.335 0-21.335 19.506-42.67 19.506s-21.335-19.506-42.67-19.506c-21.33 0-21.33 19.506-42.663 19.506-21.059 0-21.344-18.997-41.872-19.484A259.807 259.807 0 0 0 0 256c0 4.663.132 9.296.381 13.897 20.943.235 21.082 19.494 42.285 19.494 21.333 0 21.333-19.504 42.663-19.504 21.335 0 21.335 19.504 42.67 19.504s21.335-19.504 42.67-19.504c21.333 0 21.333 19.504 42.663 19.504 21.333 0 21.333-19.504 42.665-19.504 21.335 0 21.335 19.504 42.67 19.504s21.335-19.504 42.667-19.504c21.333 0 21.333 19.504 42.665 19.504s21.333-19.504 42.665-19.504c21.335 0 21.335 19.504 42.667 19.504 21.205 0 21.344-19.259 42.291-19.494.246-4.602.378-9.234.378-13.897 0-6.807-.272-13.551-.794-20.225z" fill="#f0f0f0"/><g/><g/><g/><g/><g/><g/><g/><g/><g/><g/><g/><g/><g/><g/><g/></svg>