<svg id="Layer_1" xmlns="http://www.w3.org/2000/svg" viewBox="0 0 512 512"><circle cx="256" cy="256" r="256" fill="#d80027"/><polygon points="381.197,256 330.042,280.062 357.283,329.609 301.73,318.98 294.694,375.096 255.999,333.826 217.307,375.096 210.268,318.98 154.72,329.607 181.96,280.06 130.803,256 181.96,231.939 154.72,182.391 210.266,193.021 217.309,136.904 255.999,178.175 294.696,136.904 301.73,193.021 357.285,182.391 330.043,231.942" fill="#ffda44"/><circle cx="256" cy="256" r="77.913" fill="#d80027"/><path d="M217.043 256c-1.877 0-3.73.096-5.559.278a44.33 44.33 0 0 0 10.419 28.341 78.084 78.084 0 0 1 15.053-24.922A55.357 55.357 0 0 0 217.043 256z" fill="#ffda44"/><path d="M241.025 297.933c4.68 1.672 9.719 2.589 14.975 2.589s10.295-.917 14.975-2.589c-2.551-10.012-7.818-18.95-14.975-25.974-7.157 7.023-12.424 15.962-14.975 25.974z" fill="#ffda44"/><path d="M294.555 233.746c-7.698-13.306-22.075-22.268-38.555-22.268s-30.857 8.961-38.555 22.268A77.402 77.402 0 0 1 256 244.222a77.396 77.396 0 0 1 38.555-10.476z" fill="#ffda44"/><path d="M275.042 259.698a78.062 78.062 0 0 1 15.053 24.922 44.33 44.33 0 0 0 10.419-28.341 55.832 55.832 0 0 0-5.559-.278 55.33 55.33 0 0 0-19.913 3.697z" fill="#ffda44"/><g/><g/><g/><g/><g/><g/><g/><g/><g/><g/><g/><g/><g/><g/><g/></svg>