<svg id="Layer_1" xmlns="http://www.w3.org/2000/svg" viewBox="0 0 512 512"><path d="M367.304 25.402C333.648 9.128 295.891 0 256 0s-77.648 9.128-111.304 25.402L122.435 256l22.261 230.598C178.352 502.872 216.109 512 256 512s77.648-9.128 111.304-25.402L389.565 256 367.304 25.402z" fill="#ffda44"/><path d="M144.696 25.411C59.065 66.818 0 154.507 0 256s59.065 189.182 144.696 230.589V25.411z" fill="#0052b4"/><path d="M367.304 25.411v461.178C452.934 445.182 512 357.493 512 256S452.934 66.818 367.304 25.411z" fill="#0052b4"/><polygon points="328.348,278.261 345.043,300.522 345.043,211.478 328.348,233.739 278.261,233.739 278.261,183.652 300.522,166.957 211.478,166.957 233.739,183.652 233.739,233.739 183.652,233.739 166.957,211.478 166.957,300.522 183.652,278.261 233.739,278.261 233.739,328.348 211.478,345.043 300.522,345.043 278.261,328.348 278.261,278.261" fill="#d80027"/><polygon points="322.783,244.87 267.13,244.87 267.13,189.217 244.87,189.217 244.87,244.87 189.217,244.87 189.217,267.13 244.87,267.13 244.87,322.783 267.13,322.783 267.13,267.13 322.783,267.13" fill="#f0f0f0"/><g/><g/><g/><g/><g/><g/><g/><g/><g/><g/><g/><g/><g/><g/><g/></svg>