<svg id="Layer_1" xmlns="http://www.w3.org/2000/svg" viewBox="0 0 512 512"><path d="M256 512c141.384 0 256-114.616 256-256 0-42.963-10.6-83.446-29.302-119L255.699 256.3 375 29.302C339.446 10.6 298.963 0 256 0 114.616 0 0 114.616 0 256c0 70.693 28.654 134.693 74.98 181.02C121.307 483.347 185.307 512 256 512z" fill="#0052b4"/><path d="M482.428 137.279c-11.718-22.304-26.953-43.245-45.707-61.999-18.755-18.754-39.693-33.989-61.999-45.706L74.681 437.319l407.747-300.04z" fill="#f0f0f0"/><path d="M74.681 437.319l407.747-300.04c-11.718-22.304-26.953-43.245-45.707-61.999L74.681 437.319z" fill="#ff9811"/><polygon points="222.308,150.122 191.044,164.828 207.693,195.108 173.743,188.613 169.441,222.909 145.793,197.684 122.145,222.909 117.845,188.613 83.895,195.106 100.542,164.827 69.278,150.122 100.543,135.415 83.895,105.137 117.843,111.63 122.146,77.334 145.793,102.559 169.441,77.334 173.743,111.63 207.694,105.137 191.045,135.416" fill="#f0f0f0"/><g/><g/><g/><g/><g/><g/><g/><g/><g/><g/><g/><g/><g/><g/><g/></svg>