<svg id="Layer_1" xmlns="http://www.w3.org/2000/svg" viewBox="0 0 512 512"><circle cx="256" cy="256" r="256" fill="#496e2d"/><path d="M256 295.751c-42.626 0-78.236-29.958-86.973-69.963a89.373 89.373 0 0 0-2.07 19.081c0 49.179 39.865 89.043 89.043 89.043s89.043-39.865 89.043-89.043a89.39 89.39 0 0 0-2.07-19.082c-8.737 40.007-44.347 69.964-86.973 69.964z" fill="#ffda44"/><polygon points="255.999,178.087 264.287,203.596 291.11,203.596 269.411,219.361 277.699,244.87 255.999,229.104 234.3,244.87 242.589,219.361 220.89,203.596 247.711,203.596" fill="#ffda44"/></svg>