<svg id="Layer_1" xmlns="http://www.w3.org/2000/svg" viewBox="0 0 512 512"><circle cx="256" cy="256" r="256" fill="#338af3"/><rect x="122.435" y="278.261" width="267.13" height="33.391" fill="#818085"/><polygon points="166.957,178.087 256,189.219 345.043,178.087 345.043,124.661 309.426,142.47 256,89.043 202.574,142.47 166.957,124.661" fill="#ffda44"/><polygon points="144.696,345.045 111.304,345.045 111.304,283.827 122.435,267.13 111.304,250.435 111.304,211.479 144.696,211.479" fill="#f0f0f0"/><polygon points="400.696,345.045 367.304,345.045 367.304,211.479 400.696,211.479 400.696,250.434 389.565,267.41 400.696,283.829" fill="#f0f0f0"/><rect x="111.304" y="250.435" width="289.391" height="33.391" fill="#acabb1"/><path d="M256 389.565c-49.099 0-89.043-39.945-89.043-89.043V178.088h178.087v122.434c-.001 49.098-39.945 89.043-89.044 89.043z" fill="#f0f0f0"/><path d="M256 356.174c-30.687 0-55.652-24.966-55.652-55.652V211.48h111.304v89.042c0 30.686-24.965 55.652-55.652 55.652z" fill="#0052b4"/><rect x="166.957" y="178.087" width="33.391" height="33.391" fill="#d80027"/><rect x="311.652" y="178.087" width="33.391" height="33.391" fill="#d80027"/><rect x="311.652" y="250.435" width="33.391" height="33.391" fill="#d80027"/><rect x="166.957" y="250.435" width="33.391" height="33.391" fill="#d80027"/><rect x="239.304" y="178.087" width="33.391" height="33.391" fill="#d80027"/><path d="M256 356.174c-5.816 0-11.423-.9-16.696-2.562v34.361c5.412 1.032 10.988 1.593 16.696 1.593s11.284-.561 16.696-1.593v-34.361A55.476 55.476 0 0 1 256 356.174z" fill="#d80027"/><path d="M201.092 309.556l-26.648 26.648a89.353 89.353 0 0 0 19.314 27.908l23.6-23.6c-8.422-8.137-14.289-18.897-16.266-30.956z" fill="#d80027"/><path d="M337.556 336.206l-26.648-26.648c-1.978 12.058-7.844 22.817-16.265 30.957l23.6 23.6a89.4 89.4 0 0 0 19.313-27.909z" fill="#d80027"/><g/><g/><g/><g/><g/><g/><g/><g/><g/><g/><g/><g/><g/><g/><g/></svg>