<svg id="Layer_1" xmlns="http://www.w3.org/2000/svg" viewBox="0 0 512 512"><path d="M367.304 25.402C333.648 9.128 295.89 0 256 0s-77.648 9.128-111.304 25.402L122.435 256l22.261 230.598C178.352 502.872 216.11 512 256 512s77.648-9.128 111.304-25.402L389.565 256 367.304 25.402z" fill="#ffda44"/><path d="M144.696 25.411C59.066 66.818 0 154.507 0 256s59.066 189.182 144.696 230.589V25.411z" fill="#0052b4"/><path d="M367.304 25.411v461.178C452.934 445.182 512 357.493 512 256S452.934 66.818 367.304 25.411z" fill="#d80027"/><path d="M345.043 201.419h-61.217c0-15.368-12.458-27.826-27.826-27.826s-27.826 12.458-27.826 27.826h-61.217c0 15.131 13.181 27.396 28.31 27.396h-.912c0 15.132 12.266 27.399 27.398 27.399 0 13.397 9.622 24.529 22.33 26.909l-21.59 48.742A88.773 88.773 0 0 0 256 338.407a88.768 88.768 0 0 0 33.506-6.542l-21.589-48.742c12.708-2.38 22.33-13.512 22.33-26.909 15.132 0 27.398-12.267 27.398-27.399h-.913c15.131 0 28.311-12.266 28.311-27.396z" fill="#ff9811"/><polygon points="256,239.304 219.826,256 219.826,289.391 256,311.652 292.174,289.391 292.174,256" fill="#0052b4"/><rect x="219.826" y="222.609" width="72.348" height="33.391" fill="#d80027"/><g/><g/><g/><g/><g/><g/><g/><g/><g/><g/><g/><g/><g/><g/><g/></svg>