<svg id="Layer_1" xmlns="http://www.w3.org/2000/svg" viewBox="0 0 512 512"><path d="M256 512c31.314 0 61.311-5.632 89.043-15.923L356.174 256l-11.13-240.077C317.311 5.633 287.314 0 256 0s-61.311 5.633-89.043 15.923L155.826 256l11.13 240.077C194.689 506.368 224.686 512 256 512z" fill="#0052b4"/><path d="M0 256c0 110.071 69.472 203.906 166.957 240.077V15.923C69.472 52.094 0 145.929 0 256z" fill="#a2001d"/><path d="M345.043 15.923v480.155C442.528 459.906 512 366.071 512 256S442.528 52.094 345.043 15.923z" fill="#a2001d"/><rect x="122.435" y="256" width="22.261" height="89.043" fill="#ffda44"/><rect x="33.391" y="256" width="22.261" height="89.043" fill="#ffda44"/><circle cx="89.043" cy="289.391" r="22.261" fill="#ffda44"/><circle cx="89.043" cy="211.478" r="11.13" fill="#ffda44"/><rect x="66.783" y="322.783" width="44.522" height="22.261" fill="#ffda44"/><rect x="66.783" y="233.739" width="44.522" height="22.261" fill="#ffda44"/><polygon points="89.043,133.565 96.927,157.825 122.435,157.825 101.8,172.819 109.678,197.079 89.043,182.085 68.409,197.079 76.287,172.819 55.652,157.825 81.16,157.825" fill="#ffda44"/></svg>