<svg id="Layer_1" xmlns="http://www.w3.org/2000/svg" viewBox="0 0 512 512"><circle cx="256" cy="256" r="256" fill="#f0f0f0"/><path d="M138.371 356.174l-63.382 80.837C121.313 483.341 185.306 512 256 512c105.83 0 196.644-64.229 235.631-155.826h-353.26z" fill="#ffda44"/><path d="M492.029 156.753C453.26 64.662 362.188 0 256 0 185.306 0 121.313 28.659 74.989 74.989l64.11 81.764h352.93z" fill="#496e2d"/><path d="M55.652 188.29v134.492h447.53C508.924 301.491 512 279.107 512 256c0-23.442-3.158-46.142-9.061-67.71H55.652z"/><path d="M74.98 74.98c-99.974 99.974-99.974 262.065 0 362.04L256 256 74.98 74.98z" fill="#a2001d"/><polygon points="103.61,189.217 120.185,240.233 173.831,240.233 130.433,271.765 147.007,322.783 103.61,291.252 60.211,322.783 76.789,271.765 33.391,240.233 87.033,240.233" fill="#ffda44"/><rect x="55.107" y="256" width="97.024" height="44.522" fill="#f0f0f0"/><polygon points="170.5,204.959 154.759,189.217 103.611,240.365 52.463,189.217 36.722,204.959 87.915,256.061 36.722,307.255 52.463,322.783 103.611,271.727 154.759,322.783 170.5,307.255 119.307,256.061"/><g/><g/><g/><g/><g/><g/><g/><g/><g/><g/><g/><g/><g/><g/><g/></svg>