<svg id="Layer_1" xmlns="http://www.w3.org/2000/svg" viewBox="0 0 512 512"><circle cx="256" cy="256" r="256" fill="#0052b4"/><circle cx="256" cy="256" r="256" fill="#ffda44"/><path d="M256 0C122.116 0 12.258 102.781.975 233.739h510.051C499.742 102.781 389.884 0 256 0z" fill="#0052b4"/><path d="M256 512c133.884 0 243.742-102.781 255.026-233.739H.975C12.258 409.219 122.116 512 256 512z" fill="#0052b4"/><polygon points="211.479,345.043 182.793,358.537 198.068,386.318 166.919,380.359 162.972,411.826 141.275,388.683 119.579,411.826 115.632,380.359 84.482,386.317 99.758,358.536 71.072,345.043 99.759,331.55 84.482,303.77 115.631,309.728 119.58,278.261 141.275,301.404 162.973,278.261 166.919,309.728 198.069,303.77 182.794,331.551" fill="#f0f0f0"/><g/><g/><g/><g/><g/><g/><g/><g/><g/><g/><g/><g/><g/><g/><g/></svg>