<svg id="Layer_1" xmlns="http://www.w3.org/2000/svg" viewBox="0 0 512 512"><path d="M512 256c0 141.384-114.616 256-256 256S0 397.384 0 256C0 256.061 256 .028 256 0c141.384 0 256 114.616 256 256z" fill="#0052b4"/><path d="M256 0h-.043.043z" fill="#f0f0f0"/><path d="M255.315 256H256v-.685l-.685.685z" fill="#f0f0f0"/><path d="M256 133.565V0h-.043C114.592.024 0 114.629 0 256h133.565v-75.211L208.777 256h46.539l.685-.685v-46.537l-75.213-75.213H256z" fill="#f0f0f0"/><path d="M129.515 33.391a257.222 257.222 0 0 0-96.124 96.124V256h66.783V100.174H256V33.391H129.515z" fill="#d80027"/><path d="M256 224.519l-90.953-90.953s-31.481.002-31.481 0v.002L255.999 256H256v-31.481z" fill="#d80027"/><polygon points="443.33,189.959 448.855,206.965 466.736,206.965 452.27,217.475 457.796,234.48 443.33,223.971 428.863,234.48 434.389,217.475 419.922,206.965 437.803,206.965" fill="#d80027"/><polygon points="379.411,312.393 387.7,337.903 414.521,337.903 392.821,353.667 401.111,379.176 379.411,363.411 357.711,379.176 366.001,353.667 344.301,337.903 371.122,337.903" fill="#d80027"/><polygon points="381.825,112.046 388.733,133.305 411.084,133.305 393,146.44 399.908,167.698 381.825,154.559 363.743,167.698 370.65,146.44 352.568,133.305 374.918,133.305" fill="#d80027"/><polygon points="320.322,189.217 328.61,214.727 355.432,214.727 333.732,230.491 342.022,256 320.322,240.235 298.622,256 306.912,230.491 285.212,214.727 312.033,214.727" fill="#d80027"/></svg>