<svg id="Layer_1" xmlns="http://www.w3.org/2000/svg" viewBox="0 0 512 512"><circle cx="256" cy="256" r="256" fill="#f0f0f0"/><path d="M256 0C154.506 0 66.81 59.065 25.402 144.696h461.195C445.19 59.065 357.493 0 256 0z" fill="#338af3"/><path d="M256 512c101.493 0 189.19-59.065 230.598-144.696H25.402C66.81 452.935 154.506 512 256 512z" fill="#338af3"/><path d="M256 178.087c-43.03 0-77.913 34.883-77.913 77.913S212.97 333.913 256 333.913 333.913 299.03 333.913 256 299.03 178.087 256 178.087zm0 122.435c-24.588 0-44.522-19.932-44.522-44.522s19.933-44.522 44.522-44.522S300.522 231.41 300.522 256 280.588 300.522 256 300.522z" fill="#ffda44"/><polygon points="294.558,267.13 256,256 217.442,267.13 204.59,289.391 307.409,289.391" fill="#0052b4"/><polygon points="256,200.348 230.295,244.87 256,256 281.705,244.87" fill="#338af3"/><polygon points="217.442,267.13 294.558,267.13 281.705,244.87 230.295,244.87" fill="#6da544"/><g/><g/><g/><g/><g/><g/><g/><g/><g/><g/><g/><g/><g/><g/><g/></svg>