<svg id="Layer_1" xmlns="http://www.w3.org/2000/svg" viewBox="0 0 512 512"><path d="M256 0h-.043.043z" fill="#f0f0f0"/><path d="M512 256c0 141.384-114.616 256-256 256S0 397.384 0 256C0 256.061 256 .028 256 0c141.384 0 256 114.616 256 256z" fill="#ffda44"/><polygon points="256,122.435 256,208.778 166.957,122.435" fill="#0052b4"/><polygon points="133.565,256 208.776,256 133.565,155.826 122.435,233.739" fill="#0052b4"/><path d="M255.315 256H256v-.685l-.685.685z" fill="#f0f0f0"/><path d="M256 133.565V0h-.043C114.591.024 0 114.629 0 256h133.565v-75.211L208.776 256h46.54l.685-.685v-46.537l-75.213-75.213H256z" fill="#f0f0f0"/><path d="M256 224.519l-90.955-90.953h-31.48v.002L255.998 256H256v-31.481z" fill="#d80027"/><path d="M129.515 33.391a256.528 256.528 0 0 0-28.316 18.72h10.504L83.941 72.285l10.602 32.637-27.762-20.17-2.954 2.147a256.772 256.772 0 0 0-30.436 42.616V256h66.783V100.174H256V33.391H129.515z" fill="#d80027"/><path d="M109.36 46.152a256.484 256.484 0 0 0-8.164 5.959L83.941 72.285l-17.16 12.466-2.979 2.164a257.214 257.214 0 0 0-17.651 22.445 47.121 47.121 0 0 0 20.63 4.727c26.126 0 47.304-21.178 47.304-47.304a47.08 47.08 0 0 0-4.725-20.631z" fill="#0052b4"/><path d="M63.803 86.915l2.979-2.164 27.762 20.171-10.603-32.637 27.76-20.174h-10.506a257.61 257.61 0 0 0-37.392 34.804z" fill="#ffda44"/><polygon points="176.942,44.522 182.468,61.527 200.348,61.527 185.883,72.038 191.406,89.043 176.942,78.533 162.477,89.043 167.999,72.038 153.534,61.527 171.415,61.527" fill="#ffda44"/><polygon points="66.783,155.826 72.309,172.831 90.189,172.831 75.725,183.343 81.248,200.348 66.783,189.837 52.317,200.348 57.84,183.343 43.376,172.831 61.256,172.831" fill="#ffda44"/></svg>