<svg id="Layer_1" xmlns="http://www.w3.org/2000/svg" viewBox="0 0 512 512"><circle cx="256" cy="256" r="256" fill="#f0f0f0"/><path d="M256 0C178.409 0 108.886 34.524 61.939 89.043H450.06C403.114 34.524 333.591 0 256 0z" fill="#0052b4"/><path d="M450.061 422.957H61.939C108.886 477.476 178.409 512 256 512s147.114-34.524 194.061-89.043z" fill="#0052b4"/><path d="M474.426 122.435H37.574C13.745 161.32 0 207.053 0 256s13.745 94.681 37.574 133.565h436.852C498.255 350.681 512 304.947 512 256s-13.745-94.68-37.574-133.565z" fill="#d80027"/><circle cx="157.496" cy="256" r="98.504" fill="#f0f0f0"/><polygon points="157.496,157.496 179.597,225.517 251.235,225.517 193.258,267.559 215.532,335.783 157.496,293.541 99.548,335.704 121.734,267.559 63.809,225.517 135.394,225.517" fill="#d80027"/><g/><g/><g/><g/><g/><g/><g/><g/><g/><g/><g/><g/><g/><g/><g/></svg>