<svg id="Layer_1" xmlns="http://www.w3.org/2000/svg" viewBox="0 0 512 512"><circle cx="256" cy="256" r="256" fill="#f0f0f0"/><path d="M61.939 89.043a256.91 256.91 0 0 0-24.366 33.391h436.852a256.75 256.75 0 0 0-24.366-33.391H61.939z" fill="#d80027"/><path d="M61.939 422.957H450.06a256.91 256.91 0 0 0 24.366-33.391H37.574a256.878 256.878 0 0 0 24.365 33.391z" fill="#d80027"/><polygon points="223.24,209.186 244.244,238.131 278.261,227.101 257.224,256.021 278.226,284.965 244.221,273.893 223.184,302.813 223.205,267.052 189.2,255.98 223.218,244.95" fill="#d80027"/><path d="M165.915 328.348c-39.956 0-72.348-32.392-72.348-72.348s32.392-72.348 72.348-72.348c12.458 0 24.181 3.15 34.415 8.696-16.055-15.701-38.012-25.392-62.241-25.392-49.178 0-89.043 39.866-89.043 89.043s39.866 89.043 89.043 89.043c24.229 0 46.186-9.691 62.241-25.392-10.234 5.548-21.956 8.698-34.415 8.698z" fill="#d80027"/></svg>