<svg id="Layer_1" xmlns="http://www.w3.org/2000/svg" viewBox="0 0 512 512"><circle cx="256" cy="256" r="256" fill="#f0f0f0"/><path d="M0 256c0 97.035 53.989 181.454 133.565 224.873V31.127C53.989 74.546 0 158.965 0 256z" fill="#f0f0f0"/><path d="M256 0c-44.35 0-86.064 11.283-122.435 31.127v449.745C169.936 500.717 211.65 512 256 512c141.384 0 256-114.616 256-256S397.384 0 256 0z" fill="#496e2d"/><path d="M365.453 298.337c-32.387 23.401-77.613 16.117-101.013-16.269-23.402-32.388-16.117-77.613 16.27-101.013 10.098-7.296 21.444-11.609 32.987-13.108-22.207-3.321-45.682 1.683-65.319 15.872-39.86 28.802-48.827 84.463-20.026 124.325 28.801 39.859 84.463 48.827 124.325 20.023 19.639-14.189 31.76-34.902 35.578-57.031-5.046 10.486-12.703 19.904-22.802 27.201z" fill="#f0f0f0"/><polygon points="364.066,166.959 382.31,186.62 406.646,175.348 393.583,198.772 411.826,218.435 385.51,213.25 372.448,236.676 369.247,210.046 342.931,204.861 367.268,193.589" fill="#f0f0f0"/></svg>