<svg id="Layer_1" xmlns="http://www.w3.org/2000/svg" viewBox="0 0 512 512"><circle cx="256" cy="256" r="256" fill="#f0f0f0"/><path d="M0 256c0 141.384 114.616 256 256 256V256H0z" fill="#0052b4"/><path d="M256 0c141.384 0 256 114.616 256 256H256V0z" fill="#d80027"/><polygon points="152.389,89.043 168.966,140.061 222.609,140.061 179.211,171.591 195.787,222.609 152.389,191.078 108.991,222.609 125.567,171.591 82.169,140.061 135.812,140.061" fill="#0052b4"/><polygon points="359.611,289.391 376.188,340.409 429.831,340.409 386.432,371.939 403.009,422.957 359.611,391.426 316.213,422.957 332.789,371.939 289.391,340.409 343.034,340.409" fill="#d80027"/><g/><g/><g/><g/><g/><g/><g/><g/><g/><g/><g/><g/><g/><g/><g/></svg>