<svg id="Layer_1" xmlns="http://www.w3.org/2000/svg" viewBox="0 0 512 512"><circle cx="256" cy="256" r="256" fill="#f0f0f0"/><path d="M256 0C172.248 0 97.893 40.223 51.189 102.4h409.622C414.107 40.223 339.752 0 256 0z" fill="#d80027"/><path d="M256 512c83.752 0 158.107-40.223 204.811-102.4H51.189C97.893 471.777 172.248 512 256 512z" fill="#d80027"/><path d="M0 256a257.1 257.1 0 0 0 5.127 51.2h501.748C510.234 290.657 512 273.535 512 256s-1.768-34.657-5.126-51.2H5.127A257.1 257.1 0 0 0 0 256z" fill="#d80027"/><path d="M74.98 74.98c-99.974 99.974-99.974 262.065 0 362.04L256 256 74.98 74.98z" fill="#0052b4"/><polygon points="103.61,189.217 120.185,240.233 173.831,240.233 130.433,271.765 147.007,322.783 103.61,291.252 60.211,322.783 76.789,271.765 33.391,240.233 87.033,240.233" fill="#f0f0f0"/></svg>