<svg id="Layer_1" xmlns="http://www.w3.org/2000/svg" viewBox="0 0 512 512"><circle cx="256" cy="256" r="256" fill="#f0f0f0"/><path d="M256 0C255.761-.18-.068 255.933 0 256 0 114.616 114.616 0 256 0z" fill="#d80027"/><path d="M256 0c.239-.18 256.068 255.932 256 256C512 114.616 397.384 0 256 0z" fill="#d80027"/><path d="M256 512c-.239.18-256.068-255.932-256-256 0 141.384 114.616 256 256 256z" fill="#0052b4"/><path d="M256 512c.239.18 256.068-255.932 256-256 0 141.384-114.616 256-256 256z" fill="#0052b4"/><polygon points="256,133.565 283.628,218.594 373.033,218.594 300.702,271.144 328.33,356.174 256,303.623 183.67,356.174 211.298,271.144 138.968,218.594 228.372,218.594" fill="#ffda44"/><g/><g/><g/><g/><g/><g/><g/><g/><g/><g/><g/><g/><g/><g/><g/></svg>