<svg id="Layer_1" xmlns="http://www.w3.org/2000/svg" viewBox="0 0 511.999 511.999"><circle cx="255.999" cy="255.999" r="255.999" fill="#ffda44"/><path d="M74.98 437.019a257.466 257.466 0 0 0 34.217 28.748l356.568-356.568a257.326 257.326 0 0 0-28.748-34.217 257.601 257.601 0 0 0-34.216-28.747L46.235 402.804a257.35 257.35 0 0 0 28.745 34.215z"/><path d="M74.981 74.98c-80.763 80.763-96.268 202.056-46.544 298.397l344.94-344.939C277.036-21.285 155.741-5.78 74.981 74.98z" fill="#6da544"/><path d="M437.018 437.019c80.762-80.761 96.266-202.054 46.545-298.397L138.62 483.564c96.342 49.722 217.635 34.218 298.398-46.545z" fill="#d80027"/><polygon points="162.77,302.008 186.668,314.185 205.634,295.22 201.438,321.709 225.335,333.887 198.844,338.082 194.648,364.573 182.472,340.675 155.982,344.871 174.947,325.906" fill="#f0f0f0"/><polygon points="302.007,162.771 325.904,174.948 344.87,155.983 340.675,182.472 364.572,194.65 338.081,198.846 333.886,225.336 321.709,201.439 295.219,205.634 314.184,186.669" fill="#f0f0f0"/></svg>