<svg id="Layer_1" xmlns="http://www.w3.org/2000/svg" viewBox="0 0 512 512"><path id="SVGCleanerId_0" d="M111.713 467.478C152.799 495.563 202.476 512 256 512s103.202-16.437 144.287-44.522L256 445.217l-144.287 22.261z" fill="#d80027"/><path id="SVGCleanerId_1" d="M400.287 44.522C359.202 16.437 309.524 0 256 0S152.797 16.437 111.713 44.522L256 66.783l144.287-22.261z" fill="#d80027"/><path id="SVGCleanerId_0_1_" d="M111.713 467.478C152.799 495.563 202.476 512 256 512s103.202-16.437 144.287-44.522L256 445.217l-144.287 22.261z" fill="#d80027"/><path id="SVGCleanerId_1_1_" d="M400.287 44.522C359.202 16.437 309.524 0 256 0S152.797 16.437 111.713 44.522L256 66.783l144.287-22.261z" fill="#d80027"/><path d="M511.348 239.304c-6.065-79.01-54.072-155.826-111.061-194.783H111.713C48.577 87.682 5.75 158.37.538 239.304L256 256l255.348-16.696z" fill="#0052b4"/><path d="M.538 272.696c5.212 80.935 48.038 151.622 111.174 194.783h288.574c63.139-43.16 105.963-113.848 111.175-194.783L256 256 .538 272.696z" fill="#0052b4"/><path d="M511.348 239.303H272.696V33.391h-33.391v205.912H.539A260.12 260.12 0 0 0 0 256c0 5.609.183 11.175.538 16.695h238.767v205.914h33.391V272.695h238.767c.354-5.52.537-11.086.537-16.695 0-5.569-.225-11.138-.652-16.697z" fill="#d80027"/><polygon points="100.174,256 255.999,158.058 411.826,256 255.999,353.943" fill="#f0f0f0"/><polygon points="166.957,300.522 367.304,300.522 322.783,233.739 300.522,256 278.261,244.87 256,278.261 211.478,278.261 189.217,256" fill="#6da544"/><polygon points="256,189.217 261.526,206.222 279.405,206.222 264.94,216.733 270.466,233.739 256,223.229 241.534,233.739 247.06,216.733 232.595,206.222 250.474,206.222" fill="#ffda44"/><path d="M255.999 130.074L55.652 256l200.347 125.926L456.348 256 255.999 130.074zM118.4 256l137.599-86.487L393.6 256l-137.601 86.487L118.4 256z" fill="#d80027"/></svg>