<svg id="Layer_1" xmlns="http://www.w3.org/2000/svg" viewBox="0 0 512.001 512.001"><path d="M437.027 437.027c96.011-96.011 99.802-249.296 11.413-349.855L256 255.999 87.172 448.44c100.559 88.389 253.843 84.598 349.855-11.413z" fill="#496e2d"/><path d="M74.974 74.974c96.011-96.011 249.296-99.802 349.855-11.413L256 256.003 63.562 424.829C-24.828 324.27-21.036 170.985 74.974 74.974z" fill="#0052b4"/><path d="M424.827 63.56L63.56 424.828a258.497 258.497 0 0 0 11.413 12.198 260.165 260.165 0 0 0 12.201 11.414L448.439 87.172a259.073 259.073 0 0 0-11.414-12.201 259.537 259.537 0 0 0-12.198-11.411z" fill="#ffda44"/><polygon points="107.861,89.036 113.388,106.043 131.269,106.043 116.803,116.552 122.328,133.559 107.861,123.048 93.394,133.559 98.921,116.552 84.454,106.043 102.336,106.043" fill="#f0f0f0"/><polygon points="199.2,89.036 204.727,106.043 222.607,106.043 208.141,116.552 213.667,133.559 199.2,123.048 184.733,133.559 190.26,116.552 175.793,106.043 193.674,106.043" fill="#f0f0f0"/><polygon points="107.861,178.083 113.388,195.09 131.269,195.09 116.803,205.6 122.328,222.607 107.861,212.096 93.394,222.607 98.921,205.6 84.454,195.09 102.336,195.09" fill="#f0f0f0"/><polygon points="199.2,178.083 204.727,195.09 222.607,195.09 208.141,205.6 213.667,222.607 199.2,212.096 184.733,222.607 190.26,205.6 175.793,195.09 193.674,195.09" fill="#f0f0f0"/><polygon points="153.531,133.559 159.058,150.566 176.938,150.566 162.472,161.076 167.998,178.083 153.531,167.572 139.064,178.083 144.59,161.076 130.123,150.566 148.005,150.566" fill="#f0f0f0"/><g/><g/><g/><g/><g/><g/><g/><g/><g/><g/><g/><g/><g/><g/><g/></svg>