<svg id="Layer_1" xmlns="http://www.w3.org/2000/svg" viewBox="0 0 511.58 511.58"><circle cx="255.79" cy="255.79" r="255.79" fill="#f0f0f0"/><path d="M456.714 205.744h-84.151c0-15.355-12.448-27.803-27.803-27.803l-22.243 44.485s23.726 66.728 22.984 66.728h27.803c15.356 0 27.803-12.447 27.803-27.803 15.356 0 27.803-12.447 27.803-27.803h-.926c15.355-.001 28.73-12.448 28.73-27.804z" fill="#acabb1"/><path d="M54.865 205.744h84.151c0-15.355 12.448-27.803 27.803-27.803l22.243 44.485s-23.726 66.728-22.984 66.728h-27.803c-15.356 0-27.803-12.447-27.803-27.803-15.356 0-27.803-12.447-27.803-27.803h.926c-15.356-.001-28.73-12.448-28.73-27.804z" fill="#acabb1"/><polygon points="344.76,355.881 344.76,367.002 166.819,367.002 166.819,355.881 122.334,355.881 122.334,400.366 166.819,400.366 166.819,411.487 344.76,411.487 344.76,400.366 389.245,400.366 389.245,355.881" fill="#ffda44"/><path d="M166.819 177.94v111.212c0 68.103 88.97 88.971 88.97 88.971s88.97-20.868 88.97-88.971V177.94l-88.97-11.121-88.97 11.121z" fill="#0052b4"/><rect x="166.82" y="222.43" width="177.94" height="66.728" fill="#d80027"/><polygon points="300.274,122.334 300.274,139.016 289.153,144.577 278.032,133.455 278.032,100.091 233.547,100.091 233.547,133.455 222.426,144.577 211.304,139.016 211.304,122.334 166.819,122.334 166.819,177.94 344.76,177.94 344.76,122.334" fill="#ffda44"/></svg>