<svg id="Layer_1" xmlns="http://www.w3.org/2000/svg" viewBox="0 0 512 512"><path d="M378.435 31.127C342.064 11.283 300.35 0 256 0s-86.064 11.283-122.435 31.127L111.304 256l22.261 224.873C169.936 500.717 211.65 512 256 512s86.064-11.283 122.435-31.127L400.696 256 378.435 31.127z" fill="#ffda44"/><path d="M133.565 480.871V31.126C53.989 74.546 0 158.965 0 256s53.989 181.454 133.565 224.871z" fill="#338af3"/><path d="M512 256c0-97.035-53.989-181.454-133.565-224.874v449.745C458.011 437.454 512 353.035 512 256z" fill="#6da544"/><polygon points="200.348,322.783 155.825,256 200.347,189.217 244.871,256" fill="#6da544"/><polygon points="311.652,322.783 267.13,256 311.652,189.217 356.174,256" fill="#6da544"/><polygon points="256,411.826 211.478,345.043 256,278.261 300.522,345.043" fill="#6da544"/><g/><g/><g/><g/><g/><g/><g/><g/><g/><g/><g/><g/><g/><g/><g/></svg>