<svg id="Layer_1" xmlns="http://www.w3.org/2000/svg" viewBox="0 0 512 512"><circle cx="256" cy="256" r="256" fill="#f0f0f0"/><path d="M496.076 166.957H15.922C5.633 194.691 0 224.686 0 256s5.633 61.311 15.922 89.043h480.155C506.368 317.311 512 287.314 512 256s-5.632-61.309-15.924-89.043z" fill="#a2001d"/><path d="M256.741 512c87.682 0 165.058-44.092 211.196-111.304H45.546C91.684 467.908 169.058 512 256.741 512z" fill="#6da544"/><path d="M256.741.002c87.682 0 165.058 44.092 211.196 111.304H45.546C91.684 44.094 169.058.002 256.741.002z" fill="#6da544"/><polygon points="256,166.957 278.101,234.977 349.626,234.977 291.762,277.021 313.865,345.043 256,303.004 198.135,345.043 220.239,277.021 162.374,234.977 233.899,234.977" fill="#ffda44"/></svg>