<svg id="Layer_1" xmlns="http://www.w3.org/2000/svg" viewBox="0 0 512 512"><circle cx="256" cy="256" r="256" fill="#f0f0f0"/><path d="M256 0C145.929 0 52.094 69.472 15.923 166.957h480.155C459.906 69.472 366.071 0 256 0z" fill="#d80027"/><path d="M256 512c110.071 0 203.906-69.472 240.077-166.957H15.923C52.094 442.528 145.929 512 256 512z"/><polygon points="152.962,194.783 166.775,237.295 211.478,237.295 175.313,263.573 189.127,306.087 152.962,279.812 116.797,306.087 130.611,263.573 94.446,237.295 139.149,237.295" fill="#6da544"/><polygon points="359.038,194.783 372.851,237.295 417.555,237.295 381.389,263.573 395.203,306.087 359.038,279.812 322.873,306.087 336.687,263.573 300.522,237.295 345.225,237.295" fill="#6da544"/><g/><g/><g/><g/><g/><g/><g/><g/><g/><g/><g/><g/><g/><g/><g/></svg>