<svg id="Layer_1" xmlns="http://www.w3.org/2000/svg" viewBox="0 0 512 512"><path d="M512 256c0 141.384-114.616 256-256 256S0 397.384 0 256L256 0c141.384 0 256 114.616 256 256z" fill="#d80027"/><path d="M256 256V0C114.616 0 0 114.616 0 256h256z" fill="#0052b4"/><polygon points="222.609,149.821 191.344,164.529 207.992,194.808 174.043,188.312 169.74,222.609 146.094,197.385 122.446,222.609 118.145,188.312 84.195,194.806 100.843,164.527 69.579,149.821 100.844,135.116 84.195,104.836 118.144,111.331 122.447,77.035 146.094,102.259 169.741,77.035 174.043,111.331 207.993,104.836 191.344,135.117" fill="#f0f0f0"/><circle cx="146.098" cy="149.816" r="47.653" fill="#0052b4"/><path d="M146.094 175.213c-14.001 0-25.391-11.391-25.391-25.392s11.391-25.392 25.391-25.392c14.001 0 25.392 11.391 25.392 25.392-.001 14.001-11.393 25.392-25.392 25.392z" fill="#f0f0f0"/><g/><g/><g/><g/><g/><g/><g/><g/><g/><g/><g/><g/><g/><g/><g/></svg>