<svg id="Layer_1" xmlns="http://www.w3.org/2000/svg" viewBox="0 0 512 512"><circle cx="256" cy="256" r="256" fill="#ffda44"/><path d="M256 0c-.186.002-11.13 102.4-11.13 102.4h215.942C414.107 40.223 339.752 0 256 0z" fill="#496e2d"/><path d="M256 512c83.752 0 158.107-40.223 204.811-102.4H51.189C97.893 471.777 172.248 512 256 512z" fill="#496e2d"/><path d="M506.874 204.8H244.87L256 307.2h250.874c3.36-16.543 5.126-33.665 5.126-51.2s-1.768-34.657-5.126-51.2z" fill="#496e2d"/><path d="M256 307.2V0C114.616 0 0 114.616 0 256c0 17.535 1.768 34.657 5.126 51.2H256z" fill="#d80027"/><polygon points="141.257,122.435 157.833,173.45 211.478,173.45 168.081,204.983 184.655,256 141.257,224.47 97.859,256 114.436,204.983 71.039,173.45 124.682,173.45" fill="#f0f0f0"/></svg>