<svg id="Layer_1" xmlns="http://www.w3.org/2000/svg" viewBox="0 0 512 512"><circle cx="256" cy="256" r="256" fill="#d80027"/><circle cx="256" cy="256" r="122.435" fill="#f0f0f0"/><polygon points="271.083,209.186 292.087,238.131 326.104,227.101 305.067,256.021 326.069,284.965 292.063,273.893 271.026,302.813 271.048,267.052 237.043,255.98 271.061,244.95" fill="#d80027"/><path d="M283.826 328.348c-39.956 0-72.348-32.392-72.348-72.348s32.392-72.348 72.348-72.348c12.458 0 24.181 3.15 34.415 8.696-16.055-15.701-38.01-25.392-62.241-25.392-49.176 0-89.043 39.866-89.043 89.043s39.867 89.043 89.043 89.043c24.231 0 46.187-9.691 62.241-25.392-10.234 5.548-21.957 8.698-34.415 8.698z" fill="#d80027"/></svg>