<svg id="Layer_1" xmlns="http://www.w3.org/2000/svg" viewBox="0 0 512 512"><circle cx="256" cy="256" r="256" fill="#f0f0f0"/><path id="SVGCleanerId_0" d="M256 189.217h247.181a254.559 254.559 0 0 0-28.755-66.783H256v66.783z" fill="#338af3"/><path d="M96.643 456.348h318.713a257.293 257.293 0 0 0 59.069-66.783H37.574a257.346 257.346 0 0 0 59.069 66.783z" fill="#338af3"/><path d="M256 0v55.652h159.357C371.627 20.824 316.249 0 256 0z" fill="#338af3"/><path id="SVGCleanerId_0_1_" d="M256 189.217h247.181a254.559 254.559 0 0 0-28.755-66.783H256v66.783z" fill="#338af3"/><path d="M0 256c0 23.107 3.08 45.489 8.819 66.783h494.363C508.92 301.489 512 279.107 512 256H0z" fill="#338af3"/><polygon points="222.609,149.821 191.343,164.528 207.992,194.808 174.042,188.314 169.74,222.609 146.094,197.385 122.446,222.609 118.145,188.314 84.195,194.806 100.843,164.527 69.579,149.821 100.844,135.116 84.195,104.836 118.144,111.33 122.447,77.035 146.094,102.259 169.741,77.035 174.042,111.33 207.993,104.836 191.344,135.117" fill="#ffda44"/></svg>